M48
; DRILL file {KiCad (5.1.10)-1} date 11/27/22 19:40:00
; FORMAT={-:-/ absolute / metric / decimal}
; #@! TF.CreationDate,2022-11-27T19:40:00-05:00
; #@! TF.GenerationSoftware,Kicad,Pcbnew,(5.1.10)-1
FMAT,2
METRIC
T1C0.400
T2C1.000
T3C3.200
%
G90
G05
T1
X84.312Y-94.572
X84.312Y-95.715
X84.312Y-124.417
X84.312Y-125.56
X85.455Y-94.572
X85.455Y-125.56
X92.313Y-109.812
X94.218Y-110.447
X94.218Y-113.749
X96.758Y-105.494
X96.758Y-108.288
X96.885Y-101.684
X98.663Y-100.668
X98.663Y-104.224
X98.663Y-109.304
X98.663Y-114.384
X98.663Y-119.464
X100.314Y-101.684
X100.314Y-105.24
X100.314Y-106.764
X100.314Y-103.208
X100.314Y-108.288
X102.854Y-100.16
X104.124Y-100.16
X105.394Y-100.16
X106.664Y-100.16
X107.68Y-125.56
X107.934Y-100.16
X108.823Y-124.417
X108.823Y-125.56
X109.204Y-100.16
X111.617Y-124.925
X118.729Y-105.113
X118.983Y-114.638
X119.618Y-105.748
X120.507Y-106.383
X121.264Y-116.738
X121.274Y-111.013
X121.396Y-107.018
X122.285Y-107.653
X123.174Y-108.288
X124.063Y-108.923
X124.698Y-118.702
X124.952Y-109.558
X125.587Y-117.94
X125.587Y-119.464
X126.476Y-120.226
X127.619Y-120.226
X128.127Y-105.113
X128.762Y-120.226
X129.016Y-105.748
X129.616Y-119.464
X129.905Y-106.383
X130.413Y-114.765
X130.54Y-118.702
X130.794Y-107.018
X131.302Y-114.13
X131.683Y-107.653
X132.572Y-108.288
X132.699Y-116.738
X132.704Y-111.013
X133.334Y-82.57
X133.461Y-108.923
X133.842Y-102.319
X134.35Y-109.558
X136.382Y-102.319
X136.382Y-82.126
X138.922Y-82.126
X141.462Y-102.319
X144.002Y-102.319
X144.129Y-112.606
X144.129Y-116.738
X144.134Y-111.013
X146.542Y-102.319
X149.082Y-102.446
X149.099Y-96.35
X149.463Y-119.464
X150.479Y-123.274
X151.622Y-96.35
X151.876Y-122.258
X154.162Y-102.319
X154.162Y-96.858
X155.559Y-116.738
X155.564Y-111.013
X155.813Y-102.319
X158.861Y-118.067
X158.988Y-115.527
X160.385Y-112.987
X160.385Y-115.527
X160.385Y-118.067
X161.782Y-82.126
X163.687Y-109.558
X164.068Y-117.686
X164.322Y-82.126
X164.322Y-102.954
X164.957Y-115.527
X166.227Y-105.621
X166.862Y-83.015
X167.497Y-113.304
X167.497Y-125.687
X169.402Y-83.015
X169.402Y-102.446
X169.91Y-108.796
X170.037Y-125.737
X171.942Y-83.015
X171.942Y-102.446
X173.249Y-106.853
X174.482Y-83.015
X174.482Y-102.446
X175.371Y-124.417
X175.371Y-125.56
X176.387Y-120.988
X176.514Y-125.56
X177.022Y-82.126
X177.022Y-103.271
X178.765Y-111.047
X178.8Y-102.7
X178.8Y-108.542
X179.27Y-122.042
X179.562Y-82.253
X179.562Y-97.429
X181.721Y-102.827
X181.721Y-125.56
X182.102Y-98.128
X182.102Y-82.253
X182.864Y-102.827
X182.864Y-103.97
X182.864Y-124.417
X182.864Y-125.56
T2
X86.575Y-105.224
X86.575Y-107.514
X86.575Y-109.804
X86.575Y-112.094
X86.575Y-114.384
X88.555Y-106.369
X88.555Y-108.659
X88.555Y-110.949
X88.555Y-113.239
X88.555Y-115.529
X90.535Y-105.224
X90.535Y-107.514
X90.535Y-109.804
X90.535Y-112.094
X90.535Y-114.384
T3
X88.485Y-97.569
X88.485Y-122.569
T0
M30
