%TF.GenerationSoftware,KiCad,Pcbnew,(5.1.10)-1*%
%TF.CreationDate,2022-11-27T19:39:58-05:00*%
%TF.ProjectId,AppleII-Pico,4170706c-6549-4492-9d50-69636f2e6b69,rev?*%
%TF.SameCoordinates,Original*%
%TF.FileFunction,Legend,Bot*%
%TF.FilePolarity,Positive*%
%FSLAX46Y46*%
G04 Gerber Fmt 4.6, Leading zero omitted, Abs format (unit mm)*
G04 Created by KiCad (PCBNEW (5.1.10)-1) date 2022-11-27 19:39:58*
%MOMM*%
%LPD*%
G01*
G04 APERTURE LIST*
%ADD10C,0.300000*%
%ADD11C,0.400000*%
G04 APERTURE END LIST*
D10*
X155960016Y-87841000D02*
G75*
G03*
X155960016Y-87841000I-1315416J0D01*
G01*
X182149028Y-80696371D02*
X182149028Y-79196371D01*
X181506171Y-80696371D02*
X181506171Y-79910657D01*
X181577600Y-79767800D01*
X181720457Y-79696371D01*
X181934742Y-79696371D01*
X182077600Y-79767800D01*
X182149028Y-79839228D01*
X181006171Y-79696371D02*
X180434742Y-79696371D01*
X180791885Y-79196371D02*
X180791885Y-80482085D01*
X180720457Y-80624942D01*
X180577600Y-80696371D01*
X180434742Y-80696371D01*
X180149028Y-79696371D02*
X179577600Y-79696371D01*
X179934742Y-79196371D02*
X179934742Y-80482085D01*
X179863314Y-80624942D01*
X179720457Y-80696371D01*
X179577600Y-80696371D01*
X179077600Y-79696371D02*
X179077600Y-81196371D01*
X179077600Y-79767800D02*
X178934742Y-79696371D01*
X178649028Y-79696371D01*
X178506171Y-79767800D01*
X178434742Y-79839228D01*
X178363314Y-79982085D01*
X178363314Y-80410657D01*
X178434742Y-80553514D01*
X178506171Y-80624942D01*
X178649028Y-80696371D01*
X178934742Y-80696371D01*
X179077600Y-80624942D01*
X177791885Y-80624942D02*
X177649028Y-80696371D01*
X177363314Y-80696371D01*
X177220457Y-80624942D01*
X177149028Y-80482085D01*
X177149028Y-80410657D01*
X177220457Y-80267800D01*
X177363314Y-80196371D01*
X177577600Y-80196371D01*
X177720457Y-80124942D01*
X177791885Y-79982085D01*
X177791885Y-79910657D01*
X177720457Y-79767800D01*
X177577600Y-79696371D01*
X177363314Y-79696371D01*
X177220457Y-79767800D01*
X176506171Y-80553514D02*
X176434742Y-80624942D01*
X176506171Y-80696371D01*
X176577600Y-80624942D01*
X176506171Y-80553514D01*
X176506171Y-80696371D01*
X176506171Y-79767800D02*
X176434742Y-79839228D01*
X176506171Y-79910657D01*
X176577600Y-79839228D01*
X176506171Y-79767800D01*
X176506171Y-79910657D01*
X174720457Y-79124942D02*
X176006171Y-81053514D01*
X173149028Y-79124942D02*
X174434742Y-81053514D01*
X172006171Y-79696371D02*
X172006171Y-80910657D01*
X172077600Y-81053514D01*
X172149028Y-81124942D01*
X172291885Y-81196371D01*
X172506171Y-81196371D01*
X172649028Y-81124942D01*
X172006171Y-80624942D02*
X172149028Y-80696371D01*
X172434742Y-80696371D01*
X172577600Y-80624942D01*
X172649028Y-80553514D01*
X172720457Y-80410657D01*
X172720457Y-79982085D01*
X172649028Y-79839228D01*
X172577600Y-79767800D01*
X172434742Y-79696371D01*
X172149028Y-79696371D01*
X172006171Y-79767800D01*
X171291885Y-80696371D02*
X171291885Y-79696371D01*
X171291885Y-79196371D02*
X171363314Y-79267800D01*
X171291885Y-79339228D01*
X171220457Y-79267800D01*
X171291885Y-79196371D01*
X171291885Y-79339228D01*
X170791885Y-79696371D02*
X170220457Y-79696371D01*
X170577599Y-79196371D02*
X170577599Y-80482085D01*
X170506171Y-80624942D01*
X170363314Y-80696371D01*
X170220457Y-80696371D01*
X169720457Y-80696371D02*
X169720457Y-79196371D01*
X169077599Y-80696371D02*
X169077599Y-79910657D01*
X169149028Y-79767800D01*
X169291885Y-79696371D01*
X169506171Y-79696371D01*
X169649028Y-79767800D01*
X169720457Y-79839228D01*
X167720457Y-79696371D02*
X167720457Y-80696371D01*
X168363314Y-79696371D02*
X168363314Y-80482085D01*
X168291885Y-80624942D01*
X168149028Y-80696371D01*
X167934742Y-80696371D01*
X167791885Y-80624942D01*
X167720457Y-80553514D01*
X167006171Y-80696371D02*
X167006171Y-79196371D01*
X167006171Y-79767800D02*
X166863314Y-79696371D01*
X166577599Y-79696371D01*
X166434742Y-79767800D01*
X166363314Y-79839228D01*
X166291885Y-79982085D01*
X166291885Y-80410657D01*
X166363314Y-80553514D01*
X166434742Y-80624942D01*
X166577599Y-80696371D01*
X166863314Y-80696371D01*
X167006171Y-80624942D01*
X165649028Y-80553514D02*
X165577599Y-80624942D01*
X165649028Y-80696371D01*
X165720457Y-80624942D01*
X165649028Y-80553514D01*
X165649028Y-80696371D01*
X164291885Y-80624942D02*
X164434742Y-80696371D01*
X164720457Y-80696371D01*
X164863314Y-80624942D01*
X164934742Y-80553514D01*
X165006171Y-80410657D01*
X165006171Y-79982085D01*
X164934742Y-79839228D01*
X164863314Y-79767800D01*
X164720457Y-79696371D01*
X164434742Y-79696371D01*
X164291885Y-79767800D01*
X163434742Y-80696371D02*
X163577599Y-80624942D01*
X163649028Y-80553514D01*
X163720457Y-80410657D01*
X163720457Y-79982085D01*
X163649028Y-79839228D01*
X163577599Y-79767800D01*
X163434742Y-79696371D01*
X163220457Y-79696371D01*
X163077599Y-79767800D01*
X163006171Y-79839228D01*
X162934742Y-79982085D01*
X162934742Y-80410657D01*
X163006171Y-80553514D01*
X163077599Y-80624942D01*
X163220457Y-80696371D01*
X163434742Y-80696371D01*
X162291885Y-80696371D02*
X162291885Y-79696371D01*
X162291885Y-79839228D02*
X162220457Y-79767800D01*
X162077599Y-79696371D01*
X161863314Y-79696371D01*
X161720457Y-79767800D01*
X161649028Y-79910657D01*
X161649028Y-80696371D01*
X161649028Y-79910657D02*
X161577599Y-79767800D01*
X161434742Y-79696371D01*
X161220457Y-79696371D01*
X161077599Y-79767800D01*
X161006171Y-79910657D01*
X161006171Y-80696371D01*
X159220457Y-79124942D02*
X160506171Y-81053514D01*
X158077599Y-80696371D02*
X158077599Y-79196371D01*
X158077599Y-80624942D02*
X158220457Y-80696371D01*
X158506171Y-80696371D01*
X158649028Y-80624942D01*
X158720457Y-80553514D01*
X158791885Y-80410657D01*
X158791885Y-79982085D01*
X158720457Y-79839228D01*
X158649028Y-79767800D01*
X158506171Y-79696371D01*
X158220457Y-79696371D01*
X158077599Y-79767800D01*
X157363314Y-80696371D02*
X157363314Y-79196371D01*
X157220457Y-80124942D02*
X156791885Y-80696371D01*
X156791885Y-79696371D02*
X157363314Y-80267800D01*
X155506171Y-79696371D02*
X155506171Y-80910657D01*
X155577599Y-81053514D01*
X155649028Y-81124942D01*
X155791885Y-81196371D01*
X156006171Y-81196371D01*
X156149028Y-81124942D01*
X155506171Y-80624942D02*
X155649028Y-80696371D01*
X155934742Y-80696371D01*
X156077599Y-80624942D01*
X156149028Y-80553514D01*
X156220457Y-80410657D01*
X156220457Y-79982085D01*
X156149028Y-79839228D01*
X156077599Y-79767800D01*
X155934742Y-79696371D01*
X155649028Y-79696371D01*
X155506171Y-79767800D01*
X154791885Y-80696371D02*
X154791885Y-79696371D01*
X154791885Y-79982085D02*
X154720457Y-79839228D01*
X154649028Y-79767800D01*
X154506171Y-79696371D01*
X154363314Y-79696371D01*
X153863314Y-80696371D02*
X153863314Y-79696371D01*
X153863314Y-79196371D02*
X153934742Y-79267800D01*
X153863314Y-79339228D01*
X153791885Y-79267800D01*
X153863314Y-79196371D01*
X153863314Y-79339228D01*
X153291885Y-79696371D02*
X152506171Y-79696371D01*
X153291885Y-80696371D01*
X152506171Y-80696371D01*
X152077599Y-79696371D02*
X151291885Y-79696371D01*
X152077599Y-80696371D01*
X151291885Y-80696371D01*
X150506171Y-80696371D02*
X150649028Y-80624942D01*
X150720457Y-80482085D01*
X150720457Y-79196371D01*
X150077599Y-79696371D02*
X149720457Y-80696371D01*
X149363314Y-79696371D02*
X149720457Y-80696371D01*
X149863314Y-81053514D01*
X149934742Y-81124942D01*
X150077599Y-81196371D01*
X147720457Y-79124942D02*
X149006171Y-81053514D01*
X147291885Y-80267800D02*
X146577599Y-80267800D01*
X147434742Y-80696371D02*
X146934742Y-79196371D01*
X146434742Y-80696371D01*
X145934742Y-79696371D02*
X145934742Y-81196371D01*
X145934742Y-79767800D02*
X145791885Y-79696371D01*
X145506171Y-79696371D01*
X145363314Y-79767800D01*
X145291885Y-79839228D01*
X145220457Y-79982085D01*
X145220457Y-80410657D01*
X145291885Y-80553514D01*
X145363314Y-80624942D01*
X145506171Y-80696371D01*
X145791885Y-80696371D01*
X145934742Y-80624942D01*
X144577599Y-79696371D02*
X144577599Y-81196371D01*
X144577599Y-79767800D02*
X144434742Y-79696371D01*
X144149028Y-79696371D01*
X144006171Y-79767800D01*
X143934742Y-79839228D01*
X143863314Y-79982085D01*
X143863314Y-80410657D01*
X143934742Y-80553514D01*
X144006171Y-80624942D01*
X144149028Y-80696371D01*
X144434742Y-80696371D01*
X144577599Y-80624942D01*
X143006171Y-80696371D02*
X143149028Y-80624942D01*
X143220457Y-80482085D01*
X143220457Y-79196371D01*
X141863314Y-80624942D02*
X142006171Y-80696371D01*
X142291885Y-80696371D01*
X142434742Y-80624942D01*
X142506171Y-80482085D01*
X142506171Y-79910657D01*
X142434742Y-79767800D01*
X142291885Y-79696371D01*
X142006171Y-79696371D01*
X141863314Y-79767800D01*
X141791885Y-79910657D01*
X141791885Y-80053514D01*
X142506171Y-80196371D01*
X141149028Y-80696371D02*
X141149028Y-79196371D01*
X140434742Y-80696371D02*
X140434742Y-79196371D01*
X139720457Y-80124942D02*
X138577599Y-80124942D01*
X138077599Y-79196371D02*
X137577599Y-80696371D01*
X137077599Y-79196371D01*
X135791885Y-79267800D02*
X135934742Y-79196371D01*
X136149028Y-79196371D01*
X136363314Y-79267800D01*
X136506171Y-79410657D01*
X136577599Y-79553514D01*
X136649028Y-79839228D01*
X136649028Y-80053514D01*
X136577599Y-80339228D01*
X136506171Y-80482085D01*
X136363314Y-80624942D01*
X136149028Y-80696371D01*
X136006171Y-80696371D01*
X135791885Y-80624942D01*
X135720457Y-80553514D01*
X135720457Y-80053514D01*
X136006171Y-80053514D01*
X135149028Y-80267800D02*
X134434742Y-80267800D01*
X135291885Y-80696371D02*
X134791885Y-79196371D01*
X134291885Y-80696371D01*
X182201371Y-100889371D02*
X182201371Y-99389371D01*
X181558514Y-100889371D02*
X181558514Y-100103657D01*
X181629942Y-99960800D01*
X181772800Y-99889371D01*
X181987085Y-99889371D01*
X182129942Y-99960800D01*
X182201371Y-100032228D01*
X181058514Y-99889371D02*
X180487085Y-99889371D01*
X180844228Y-99389371D02*
X180844228Y-100675085D01*
X180772800Y-100817942D01*
X180629942Y-100889371D01*
X180487085Y-100889371D01*
X180201371Y-99889371D02*
X179629942Y-99889371D01*
X179987085Y-99389371D02*
X179987085Y-100675085D01*
X179915657Y-100817942D01*
X179772800Y-100889371D01*
X179629942Y-100889371D01*
X179129942Y-99889371D02*
X179129942Y-101389371D01*
X179129942Y-99960800D02*
X178987085Y-99889371D01*
X178701371Y-99889371D01*
X178558514Y-99960800D01*
X178487085Y-100032228D01*
X178415657Y-100175085D01*
X178415657Y-100603657D01*
X178487085Y-100746514D01*
X178558514Y-100817942D01*
X178701371Y-100889371D01*
X178987085Y-100889371D01*
X179129942Y-100817942D01*
X177844228Y-100817942D02*
X177701371Y-100889371D01*
X177415657Y-100889371D01*
X177272800Y-100817942D01*
X177201371Y-100675085D01*
X177201371Y-100603657D01*
X177272800Y-100460800D01*
X177415657Y-100389371D01*
X177629942Y-100389371D01*
X177772800Y-100317942D01*
X177844228Y-100175085D01*
X177844228Y-100103657D01*
X177772800Y-99960800D01*
X177629942Y-99889371D01*
X177415657Y-99889371D01*
X177272800Y-99960800D01*
X176558514Y-100746514D02*
X176487085Y-100817942D01*
X176558514Y-100889371D01*
X176629942Y-100817942D01*
X176558514Y-100746514D01*
X176558514Y-100889371D01*
X176558514Y-99960800D02*
X176487085Y-100032228D01*
X176558514Y-100103657D01*
X176629942Y-100032228D01*
X176558514Y-99960800D01*
X176558514Y-100103657D01*
X174772800Y-99317942D02*
X176058514Y-101246514D01*
X173201371Y-99317942D02*
X174487085Y-101246514D01*
X172058514Y-99889371D02*
X172058514Y-101103657D01*
X172129942Y-101246514D01*
X172201371Y-101317942D01*
X172344228Y-101389371D01*
X172558514Y-101389371D01*
X172701371Y-101317942D01*
X172058514Y-100817942D02*
X172201371Y-100889371D01*
X172487085Y-100889371D01*
X172629942Y-100817942D01*
X172701371Y-100746514D01*
X172772800Y-100603657D01*
X172772800Y-100175085D01*
X172701371Y-100032228D01*
X172629942Y-99960800D01*
X172487085Y-99889371D01*
X172201371Y-99889371D01*
X172058514Y-99960800D01*
X171344228Y-100889371D02*
X171344228Y-99889371D01*
X171344228Y-99389371D02*
X171415657Y-99460800D01*
X171344228Y-99532228D01*
X171272800Y-99460800D01*
X171344228Y-99389371D01*
X171344228Y-99532228D01*
X170844228Y-99889371D02*
X170272800Y-99889371D01*
X170629942Y-99389371D02*
X170629942Y-100675085D01*
X170558514Y-100817942D01*
X170415657Y-100889371D01*
X170272800Y-100889371D01*
X169772800Y-100889371D02*
X169772800Y-99389371D01*
X169129942Y-100889371D02*
X169129942Y-100103657D01*
X169201371Y-99960800D01*
X169344228Y-99889371D01*
X169558514Y-99889371D01*
X169701371Y-99960800D01*
X169772800Y-100032228D01*
X167772800Y-99889371D02*
X167772800Y-100889371D01*
X168415657Y-99889371D02*
X168415657Y-100675085D01*
X168344228Y-100817942D01*
X168201371Y-100889371D01*
X167987085Y-100889371D01*
X167844228Y-100817942D01*
X167772800Y-100746514D01*
X167058514Y-100889371D02*
X167058514Y-99389371D01*
X167058514Y-99960800D02*
X166915657Y-99889371D01*
X166629942Y-99889371D01*
X166487085Y-99960800D01*
X166415657Y-100032228D01*
X166344228Y-100175085D01*
X166344228Y-100603657D01*
X166415657Y-100746514D01*
X166487085Y-100817942D01*
X166629942Y-100889371D01*
X166915657Y-100889371D01*
X167058514Y-100817942D01*
X165701371Y-100746514D02*
X165629942Y-100817942D01*
X165701371Y-100889371D01*
X165772799Y-100817942D01*
X165701371Y-100746514D01*
X165701371Y-100889371D01*
X164344228Y-100817942D02*
X164487085Y-100889371D01*
X164772800Y-100889371D01*
X164915657Y-100817942D01*
X164987085Y-100746514D01*
X165058514Y-100603657D01*
X165058514Y-100175085D01*
X164987085Y-100032228D01*
X164915657Y-99960800D01*
X164772800Y-99889371D01*
X164487085Y-99889371D01*
X164344228Y-99960800D01*
X163487085Y-100889371D02*
X163629942Y-100817942D01*
X163701371Y-100746514D01*
X163772799Y-100603657D01*
X163772799Y-100175085D01*
X163701371Y-100032228D01*
X163629942Y-99960800D01*
X163487085Y-99889371D01*
X163272799Y-99889371D01*
X163129942Y-99960800D01*
X163058514Y-100032228D01*
X162987085Y-100175085D01*
X162987085Y-100603657D01*
X163058514Y-100746514D01*
X163129942Y-100817942D01*
X163272799Y-100889371D01*
X163487085Y-100889371D01*
X162344228Y-100889371D02*
X162344228Y-99889371D01*
X162344228Y-100032228D02*
X162272799Y-99960800D01*
X162129942Y-99889371D01*
X161915657Y-99889371D01*
X161772799Y-99960800D01*
X161701371Y-100103657D01*
X161701371Y-100889371D01*
X161701371Y-100103657D02*
X161629942Y-99960800D01*
X161487085Y-99889371D01*
X161272799Y-99889371D01*
X161129942Y-99960800D01*
X161058514Y-100103657D01*
X161058514Y-100889371D01*
X159272799Y-99317942D02*
X160558514Y-101246514D01*
X158772799Y-100889371D02*
X158772799Y-99889371D01*
X158772799Y-100032228D02*
X158701371Y-99960800D01*
X158558514Y-99889371D01*
X158344228Y-99889371D01*
X158201371Y-99960800D01*
X158129942Y-100103657D01*
X158129942Y-100889371D01*
X158129942Y-100103657D02*
X158058514Y-99960800D01*
X157915657Y-99889371D01*
X157701371Y-99889371D01*
X157558514Y-99960800D01*
X157487085Y-100103657D01*
X157487085Y-100889371D01*
X156129942Y-100889371D02*
X156129942Y-100103657D01*
X156201371Y-99960800D01*
X156344228Y-99889371D01*
X156629942Y-99889371D01*
X156772799Y-99960800D01*
X156129942Y-100817942D02*
X156272799Y-100889371D01*
X156629942Y-100889371D01*
X156772799Y-100817942D01*
X156844228Y-100675085D01*
X156844228Y-100532228D01*
X156772799Y-100389371D01*
X156629942Y-100317942D01*
X156272799Y-100317942D01*
X156129942Y-100246514D01*
X155415657Y-100889371D02*
X155415657Y-99889371D01*
X155415657Y-100175085D02*
X155344228Y-100032228D01*
X155272799Y-99960800D01*
X155129942Y-99889371D01*
X154987085Y-99889371D01*
X154487085Y-100889371D02*
X154487085Y-99389371D01*
X154344228Y-100317942D02*
X153915657Y-100889371D01*
X153915657Y-99889371D02*
X154487085Y-100460800D01*
X152629942Y-100889371D02*
X152629942Y-100103657D01*
X152701371Y-99960800D01*
X152844228Y-99889371D01*
X153129942Y-99889371D01*
X153272799Y-99960800D01*
X152629942Y-100817942D02*
X152772799Y-100889371D01*
X153129942Y-100889371D01*
X153272799Y-100817942D01*
X153344228Y-100675085D01*
X153344228Y-100532228D01*
X153272799Y-100389371D01*
X153129942Y-100317942D01*
X152772799Y-100317942D01*
X152629942Y-100246514D01*
X151272799Y-100889371D02*
X151272799Y-99389371D01*
X151272799Y-100817942D02*
X151415657Y-100889371D01*
X151701371Y-100889371D01*
X151844228Y-100817942D01*
X151915657Y-100746514D01*
X151987085Y-100603657D01*
X151987085Y-100175085D01*
X151915657Y-100032228D01*
X151844228Y-99960800D01*
X151701371Y-99889371D01*
X151415657Y-99889371D01*
X151272799Y-99960800D01*
X149987085Y-100817942D02*
X150129942Y-100889371D01*
X150415657Y-100889371D01*
X150558514Y-100817942D01*
X150629942Y-100675085D01*
X150629942Y-100103657D01*
X150558514Y-99960800D01*
X150415657Y-99889371D01*
X150129942Y-99889371D01*
X149987085Y-99960800D01*
X149915657Y-100103657D01*
X149915657Y-100246514D01*
X150629942Y-100389371D01*
X149415657Y-99889371D02*
X149058514Y-100889371D01*
X148701371Y-99889371D01*
X147058514Y-99317942D02*
X148344228Y-101246514D01*
X146629942Y-100460800D02*
X145915657Y-100460800D01*
X146772799Y-100889371D02*
X146272799Y-99389371D01*
X145772799Y-100889371D01*
X145272799Y-99889371D02*
X145272799Y-101389371D01*
X145272799Y-99960800D02*
X145129942Y-99889371D01*
X144844228Y-99889371D01*
X144701371Y-99960800D01*
X144629942Y-100032228D01*
X144558514Y-100175085D01*
X144558514Y-100603657D01*
X144629942Y-100746514D01*
X144701371Y-100817942D01*
X144844228Y-100889371D01*
X145129942Y-100889371D01*
X145272799Y-100817942D01*
X143915657Y-99889371D02*
X143915657Y-101389371D01*
X143915657Y-99960800D02*
X143772799Y-99889371D01*
X143487085Y-99889371D01*
X143344228Y-99960800D01*
X143272799Y-100032228D01*
X143201371Y-100175085D01*
X143201371Y-100603657D01*
X143272799Y-100746514D01*
X143344228Y-100817942D01*
X143487085Y-100889371D01*
X143772799Y-100889371D01*
X143915657Y-100817942D01*
X142344228Y-100889371D02*
X142487085Y-100817942D01*
X142558514Y-100675085D01*
X142558514Y-99389371D01*
X141201371Y-100817942D02*
X141344228Y-100889371D01*
X141629942Y-100889371D01*
X141772799Y-100817942D01*
X141844228Y-100675085D01*
X141844228Y-100103657D01*
X141772799Y-99960800D01*
X141629942Y-99889371D01*
X141344228Y-99889371D01*
X141201371Y-99960800D01*
X141129942Y-100103657D01*
X141129942Y-100246514D01*
X141844228Y-100389371D01*
X140487085Y-100889371D02*
X140487085Y-99389371D01*
X139772799Y-100889371D02*
X139772799Y-99389371D01*
X139058514Y-100317942D02*
X137915657Y-100317942D01*
X137415657Y-99389371D02*
X136915657Y-100889371D01*
X136415657Y-99389371D01*
X135129942Y-99460800D02*
X135272799Y-99389371D01*
X135487085Y-99389371D01*
X135701371Y-99460800D01*
X135844228Y-99603657D01*
X135915657Y-99746514D01*
X135987085Y-100032228D01*
X135987085Y-100246514D01*
X135915657Y-100532228D01*
X135844228Y-100675085D01*
X135701371Y-100817942D01*
X135487085Y-100889371D01*
X135344228Y-100889371D01*
X135129942Y-100817942D01*
X135058514Y-100746514D01*
X135058514Y-100246514D01*
X135344228Y-100246514D01*
X134487085Y-100460800D02*
X133772799Y-100460800D01*
X134629942Y-100889371D02*
X134129942Y-99389371D01*
X133629942Y-100889371D01*
D11*
X179137076Y-84045942D02*
X178851361Y-84141180D01*
X178756123Y-84236419D01*
X178660885Y-84426895D01*
X178660885Y-84712609D01*
X178756123Y-84903085D01*
X178851361Y-84998323D01*
X179041838Y-85093561D01*
X179803742Y-85093561D01*
X179803742Y-83093561D01*
X179137076Y-83093561D01*
X178946600Y-83188800D01*
X178851361Y-83284038D01*
X178756123Y-83474514D01*
X178756123Y-83664990D01*
X178851361Y-83855466D01*
X178946600Y-83950704D01*
X179137076Y-84045942D01*
X179803742Y-84045942D01*
X177518028Y-85093561D02*
X177708504Y-84998323D01*
X177803742Y-84903085D01*
X177898980Y-84712609D01*
X177898980Y-84141180D01*
X177803742Y-83950704D01*
X177708504Y-83855466D01*
X177518028Y-83760228D01*
X177232314Y-83760228D01*
X177041838Y-83855466D01*
X176946600Y-83950704D01*
X176851361Y-84141180D01*
X176851361Y-84712609D01*
X176946600Y-84903085D01*
X177041838Y-84998323D01*
X177232314Y-85093561D01*
X177518028Y-85093561D01*
X175137076Y-85093561D02*
X175137076Y-84045942D01*
X175232314Y-83855466D01*
X175422790Y-83760228D01*
X175803742Y-83760228D01*
X175994219Y-83855466D01*
X175137076Y-84998323D02*
X175327552Y-85093561D01*
X175803742Y-85093561D01*
X175994219Y-84998323D01*
X176089457Y-84807847D01*
X176089457Y-84617371D01*
X175994219Y-84426895D01*
X175803742Y-84331657D01*
X175327552Y-84331657D01*
X175137076Y-84236419D01*
X174184695Y-85093561D02*
X174184695Y-83760228D01*
X174184695Y-84141180D02*
X174089457Y-83950704D01*
X173994219Y-83855466D01*
X173803742Y-83760228D01*
X173613266Y-83760228D01*
X172089457Y-85093561D02*
X172089457Y-83093561D01*
X172089457Y-84998323D02*
X172279933Y-85093561D01*
X172660885Y-85093561D01*
X172851361Y-84998323D01*
X172946600Y-84903085D01*
X173041838Y-84712609D01*
X173041838Y-84141180D01*
X172946600Y-83950704D01*
X172851361Y-83855466D01*
X172660885Y-83760228D01*
X172279933Y-83760228D01*
X172089457Y-83855466D01*
X169613266Y-85093561D02*
X169613266Y-83093561D01*
X169137076Y-83093561D01*
X168851361Y-83188800D01*
X168660885Y-83379276D01*
X168565647Y-83569752D01*
X168470409Y-83950704D01*
X168470409Y-84236419D01*
X168565647Y-84617371D01*
X168660885Y-84807847D01*
X168851361Y-84998323D01*
X169137076Y-85093561D01*
X169613266Y-85093561D01*
X166851361Y-84998323D02*
X167041838Y-85093561D01*
X167422790Y-85093561D01*
X167613266Y-84998323D01*
X167708504Y-84807847D01*
X167708504Y-84045942D01*
X167613266Y-83855466D01*
X167422790Y-83760228D01*
X167041838Y-83760228D01*
X166851361Y-83855466D01*
X166756123Y-84045942D01*
X166756123Y-84236419D01*
X167708504Y-84426895D01*
X165994219Y-84998323D02*
X165803742Y-85093561D01*
X165422790Y-85093561D01*
X165232314Y-84998323D01*
X165137076Y-84807847D01*
X165137076Y-84712609D01*
X165232314Y-84522133D01*
X165422790Y-84426895D01*
X165708504Y-84426895D01*
X165898980Y-84331657D01*
X165994219Y-84141180D01*
X165994219Y-84045942D01*
X165898980Y-83855466D01*
X165708504Y-83760228D01*
X165422790Y-83760228D01*
X165232314Y-83855466D01*
X164279933Y-85093561D02*
X164279933Y-83760228D01*
X164279933Y-83093561D02*
X164375171Y-83188800D01*
X164279933Y-83284038D01*
X164184695Y-83188800D01*
X164279933Y-83093561D01*
X164279933Y-83284038D01*
X162470409Y-83760228D02*
X162470409Y-85379276D01*
X162565647Y-85569752D01*
X162660885Y-85664990D01*
X162851361Y-85760228D01*
X163137076Y-85760228D01*
X163327552Y-85664990D01*
X162470409Y-84998323D02*
X162660885Y-85093561D01*
X163041838Y-85093561D01*
X163232314Y-84998323D01*
X163327552Y-84903085D01*
X163422790Y-84712609D01*
X163422790Y-84141180D01*
X163327552Y-83950704D01*
X163232314Y-83855466D01*
X163041838Y-83760228D01*
X162660885Y-83760228D01*
X162470409Y-83855466D01*
X161518028Y-83760228D02*
X161518028Y-85093561D01*
X161518028Y-83950704D02*
X161422790Y-83855466D01*
X161232314Y-83760228D01*
X160946600Y-83760228D01*
X160756123Y-83855466D01*
X160660885Y-84045942D01*
X160660885Y-85093561D01*
X158184695Y-85093561D02*
X158184695Y-83093561D01*
X158184695Y-83855466D02*
X157994219Y-83760228D01*
X157613266Y-83760228D01*
X157422790Y-83855466D01*
X157327552Y-83950704D01*
X157232314Y-84141180D01*
X157232314Y-84712609D01*
X157327552Y-84903085D01*
X157422790Y-84998323D01*
X157613266Y-85093561D01*
X157994219Y-85093561D01*
X158184695Y-84998323D01*
X156565647Y-83760228D02*
X156089457Y-85093561D01*
X155613266Y-83760228D02*
X156089457Y-85093561D01*
X156279933Y-85569752D01*
X156375171Y-85664990D01*
X156565647Y-85760228D01*
X153327552Y-85093561D02*
X153327552Y-83093561D01*
X152851361Y-83093561D01*
X152565647Y-83188800D01*
X152375171Y-83379276D01*
X152279933Y-83569752D01*
X152184695Y-83950704D01*
X152184695Y-84236419D01*
X152279933Y-84617371D01*
X152375171Y-84807847D01*
X152565647Y-84998323D01*
X152851361Y-85093561D01*
X153327552Y-85093561D01*
X150470409Y-85093561D02*
X150470409Y-84045942D01*
X150565647Y-83855466D01*
X150756123Y-83760228D01*
X151137076Y-83760228D01*
X151327552Y-83855466D01*
X150470409Y-84998323D02*
X150660885Y-85093561D01*
X151137076Y-85093561D01*
X151327552Y-84998323D01*
X151422790Y-84807847D01*
X151422790Y-84617371D01*
X151327552Y-84426895D01*
X151137076Y-84331657D01*
X150660885Y-84331657D01*
X150470409Y-84236419D01*
X149708504Y-83760228D02*
X149232314Y-85093561D01*
X148756123Y-83760228D01*
X147994219Y-85093561D02*
X147994219Y-83760228D01*
X147994219Y-83093561D02*
X148089457Y-83188800D01*
X147994219Y-83284038D01*
X147898980Y-83188800D01*
X147994219Y-83093561D01*
X147994219Y-83284038D01*
X146184695Y-85093561D02*
X146184695Y-83093561D01*
X146184695Y-84998323D02*
X146375171Y-85093561D01*
X146756123Y-85093561D01*
X146946600Y-84998323D01*
X147041838Y-84903085D01*
X147137076Y-84712609D01*
X147137076Y-84141180D01*
X147041838Y-83950704D01*
X146946600Y-83855466D01*
X146756123Y-83760228D01*
X146375171Y-83760228D01*
X146184695Y-83855466D01*
X143708504Y-85093561D02*
X143708504Y-83093561D01*
X142565647Y-85093561D02*
X143422790Y-83950704D01*
X142565647Y-83093561D02*
X143708504Y-84236419D01*
X140851361Y-83760228D02*
X140851361Y-85093561D01*
X141708504Y-83760228D02*
X141708504Y-84807847D01*
X141613266Y-84998323D01*
X141422790Y-85093561D01*
X141137076Y-85093561D01*
X140946600Y-84998323D01*
X140851361Y-84903085D01*
X139041838Y-85093561D02*
X139041838Y-83093561D01*
X139041838Y-84998323D02*
X139232314Y-85093561D01*
X139613266Y-85093561D01*
X139803742Y-84998323D01*
X139898980Y-84903085D01*
X139994219Y-84712609D01*
X139994219Y-84141180D01*
X139898980Y-83950704D01*
X139803742Y-83855466D01*
X139613266Y-83760228D01*
X139232314Y-83760228D01*
X139041838Y-83855466D01*
X137327552Y-84998323D02*
X137518028Y-85093561D01*
X137898980Y-85093561D01*
X138089457Y-84998323D01*
X138184695Y-84807847D01*
X138184695Y-84045942D01*
X138089457Y-83855466D01*
X137898980Y-83760228D01*
X137518028Y-83760228D01*
X137327552Y-83855466D01*
X137232314Y-84045942D01*
X137232314Y-84236419D01*
X138184695Y-84426895D01*
X136375171Y-85093561D02*
X136375171Y-83760228D01*
X136375171Y-84141180D02*
X136279933Y-83950704D01*
X136184695Y-83855466D01*
X135994219Y-83760228D01*
X135803742Y-83760228D01*
X169565647Y-88303085D02*
X169660885Y-88398323D01*
X169946600Y-88493561D01*
X170137076Y-88493561D01*
X170422790Y-88398323D01*
X170613266Y-88207847D01*
X170708504Y-88017371D01*
X170803742Y-87636419D01*
X170803742Y-87350704D01*
X170708504Y-86969752D01*
X170613266Y-86779276D01*
X170422790Y-86588800D01*
X170137076Y-86493561D01*
X169946600Y-86493561D01*
X169660885Y-86588800D01*
X169565647Y-86684038D01*
X168422790Y-88493561D02*
X168613266Y-88398323D01*
X168708504Y-88303085D01*
X168803742Y-88112609D01*
X168803742Y-87541180D01*
X168708504Y-87350704D01*
X168613266Y-87255466D01*
X168422790Y-87160228D01*
X168137076Y-87160228D01*
X167946600Y-87255466D01*
X167851361Y-87350704D01*
X167756123Y-87541180D01*
X167756123Y-88112609D01*
X167851361Y-88303085D01*
X167946600Y-88398323D01*
X168137076Y-88493561D01*
X168422790Y-88493561D01*
X166898980Y-87160228D02*
X166898980Y-89160228D01*
X166898980Y-87255466D02*
X166708504Y-87160228D01*
X166327552Y-87160228D01*
X166137076Y-87255466D01*
X166041838Y-87350704D01*
X165946600Y-87541180D01*
X165946600Y-88112609D01*
X166041838Y-88303085D01*
X166137076Y-88398323D01*
X166327552Y-88493561D01*
X166708504Y-88493561D01*
X166898980Y-88398323D01*
X165279933Y-87160228D02*
X164803742Y-88493561D01*
X164327552Y-87160228D02*
X164803742Y-88493561D01*
X164994219Y-88969752D01*
X165089457Y-89064990D01*
X165279933Y-89160228D01*
X163565647Y-88493561D02*
X163565647Y-87160228D01*
X163565647Y-87541180D02*
X163470409Y-87350704D01*
X163375171Y-87255466D01*
X163184695Y-87160228D01*
X162994219Y-87160228D01*
X162327552Y-88493561D02*
X162327552Y-87160228D01*
X162327552Y-86493561D02*
X162422790Y-86588800D01*
X162327552Y-86684038D01*
X162232314Y-86588800D01*
X162327552Y-86493561D01*
X162327552Y-86684038D01*
X160518028Y-87160228D02*
X160518028Y-88779276D01*
X160613266Y-88969752D01*
X160708504Y-89064990D01*
X160898980Y-89160228D01*
X161184695Y-89160228D01*
X161375171Y-89064990D01*
X160518028Y-88398323D02*
X160708504Y-88493561D01*
X161089457Y-88493561D01*
X161279933Y-88398323D01*
X161375171Y-88303085D01*
X161470409Y-88112609D01*
X161470409Y-87541180D01*
X161375171Y-87350704D01*
X161279933Y-87255466D01*
X161089457Y-87160228D01*
X160708504Y-87160228D01*
X160518028Y-87255466D01*
X159565647Y-88493561D02*
X159565647Y-86493561D01*
X158708504Y-88493561D02*
X158708504Y-87445942D01*
X158803742Y-87255466D01*
X158994219Y-87160228D01*
X159279933Y-87160228D01*
X159470409Y-87255466D01*
X159565647Y-87350704D01*
X158041838Y-87160228D02*
X157279933Y-87160228D01*
X157756123Y-86493561D02*
X157756123Y-88207847D01*
X157660885Y-88398323D01*
X157470409Y-88493561D01*
X157279933Y-88493561D01*
X154232314Y-88398323D02*
X154422790Y-88493561D01*
X154803742Y-88493561D01*
X154994219Y-88398323D01*
X155089457Y-88303085D01*
X155184695Y-88112609D01*
X155184695Y-87541180D01*
X155089457Y-87350704D01*
X154994219Y-87255466D01*
X154803742Y-87160228D01*
X154422790Y-87160228D01*
X154232314Y-87255466D01*
X151946600Y-86684038D02*
X151851361Y-86588800D01*
X151660885Y-86493561D01*
X151184695Y-86493561D01*
X150994219Y-86588800D01*
X150898980Y-86684038D01*
X150803742Y-86874514D01*
X150803742Y-87064990D01*
X150898980Y-87350704D01*
X152041838Y-88493561D01*
X150803742Y-88493561D01*
X149565647Y-86493561D02*
X149375171Y-86493561D01*
X149184695Y-86588800D01*
X149089457Y-86684038D01*
X148994219Y-86874514D01*
X148898980Y-87255466D01*
X148898980Y-87731657D01*
X148994219Y-88112609D01*
X149089457Y-88303085D01*
X149184695Y-88398323D01*
X149375171Y-88493561D01*
X149565647Y-88493561D01*
X149756123Y-88398323D01*
X149851361Y-88303085D01*
X149946600Y-88112609D01*
X150041838Y-87731657D01*
X150041838Y-87255466D01*
X149946600Y-86874514D01*
X149851361Y-86684038D01*
X149756123Y-86588800D01*
X149565647Y-86493561D01*
X148137076Y-86684038D02*
X148041838Y-86588800D01*
X147851361Y-86493561D01*
X147375171Y-86493561D01*
X147184695Y-86588800D01*
X147089457Y-86684038D01*
X146994219Y-86874514D01*
X146994219Y-87064990D01*
X147089457Y-87350704D01*
X148232314Y-88493561D01*
X146994219Y-88493561D01*
X146232314Y-86684038D02*
X146137076Y-86588800D01*
X145946600Y-86493561D01*
X145470409Y-86493561D01*
X145279933Y-86588800D01*
X145184695Y-86684038D01*
X145089457Y-86874514D01*
X145089457Y-87064990D01*
X145184695Y-87350704D01*
X146327552Y-88493561D01*
X145089457Y-88493561D01*
X173851361Y-90845942D02*
X173565647Y-90941180D01*
X173470409Y-91036419D01*
X173375171Y-91226895D01*
X173375171Y-91512609D01*
X173470409Y-91703085D01*
X173565647Y-91798323D01*
X173756123Y-91893561D01*
X174518028Y-91893561D01*
X174518028Y-89893561D01*
X173851361Y-89893561D01*
X173660885Y-89988800D01*
X173565647Y-90084038D01*
X173470409Y-90274514D01*
X173470409Y-90464990D01*
X173565647Y-90655466D01*
X173660885Y-90750704D01*
X173851361Y-90845942D01*
X174518028Y-90845942D01*
X171660885Y-91893561D02*
X171660885Y-90845942D01*
X171756123Y-90655466D01*
X171946600Y-90560228D01*
X172327552Y-90560228D01*
X172518028Y-90655466D01*
X171660885Y-91798323D02*
X171851361Y-91893561D01*
X172327552Y-91893561D01*
X172518028Y-91798323D01*
X172613266Y-91607847D01*
X172613266Y-91417371D01*
X172518028Y-91226895D01*
X172327552Y-91131657D01*
X171851361Y-91131657D01*
X171660885Y-91036419D01*
X170803742Y-91798323D02*
X170613266Y-91893561D01*
X170232314Y-91893561D01*
X170041838Y-91798323D01*
X169946600Y-91607847D01*
X169946600Y-91512609D01*
X170041838Y-91322133D01*
X170232314Y-91226895D01*
X170518028Y-91226895D01*
X170708504Y-91131657D01*
X170803742Y-90941180D01*
X170803742Y-90845942D01*
X170708504Y-90655466D01*
X170518028Y-90560228D01*
X170232314Y-90560228D01*
X170041838Y-90655466D01*
X168327552Y-91798323D02*
X168518028Y-91893561D01*
X168898980Y-91893561D01*
X169089457Y-91798323D01*
X169184695Y-91607847D01*
X169184695Y-90845942D01*
X169089457Y-90655466D01*
X168898980Y-90560228D01*
X168518028Y-90560228D01*
X168327552Y-90655466D01*
X168232314Y-90845942D01*
X168232314Y-91036419D01*
X169184695Y-91226895D01*
X166518028Y-91893561D02*
X166518028Y-89893561D01*
X166518028Y-91798323D02*
X166708504Y-91893561D01*
X167089457Y-91893561D01*
X167279933Y-91798323D01*
X167375171Y-91703085D01*
X167470409Y-91512609D01*
X167470409Y-90941180D01*
X167375171Y-90750704D01*
X167279933Y-90655466D01*
X167089457Y-90560228D01*
X166708504Y-90560228D01*
X166518028Y-90655466D01*
X163756123Y-91893561D02*
X163946600Y-91798323D01*
X164041838Y-91703085D01*
X164137076Y-91512609D01*
X164137076Y-90941180D01*
X164041838Y-90750704D01*
X163946600Y-90655466D01*
X163756123Y-90560228D01*
X163470409Y-90560228D01*
X163279933Y-90655466D01*
X163184695Y-90750704D01*
X163089457Y-90941180D01*
X163089457Y-91512609D01*
X163184695Y-91703085D01*
X163279933Y-91798323D01*
X163470409Y-91893561D01*
X163756123Y-91893561D01*
X162232314Y-90560228D02*
X162232314Y-91893561D01*
X162232314Y-90750704D02*
X162137076Y-90655466D01*
X161946600Y-90560228D01*
X161660885Y-90560228D01*
X161470409Y-90655466D01*
X161375171Y-90845942D01*
X161375171Y-91893561D01*
X158994219Y-91322133D02*
X158041838Y-91322133D01*
X159184695Y-91893561D02*
X158518028Y-89893561D01*
X157851361Y-91893561D01*
X157184695Y-90560228D02*
X157184695Y-92560228D01*
X157184695Y-90655466D02*
X156994219Y-90560228D01*
X156613266Y-90560228D01*
X156422790Y-90655466D01*
X156327552Y-90750704D01*
X156232314Y-90941180D01*
X156232314Y-91512609D01*
X156327552Y-91703085D01*
X156422790Y-91798323D01*
X156613266Y-91893561D01*
X156994219Y-91893561D01*
X157184695Y-91798323D01*
X155375171Y-90560228D02*
X155375171Y-92560228D01*
X155375171Y-90655466D02*
X155184695Y-90560228D01*
X154803742Y-90560228D01*
X154613266Y-90655466D01*
X154518028Y-90750704D01*
X154422790Y-90941180D01*
X154422790Y-91512609D01*
X154518028Y-91703085D01*
X154613266Y-91798323D01*
X154803742Y-91893561D01*
X155184695Y-91893561D01*
X155375171Y-91798323D01*
X153279933Y-91893561D02*
X153470409Y-91798323D01*
X153565647Y-91607847D01*
X153565647Y-89893561D01*
X151756123Y-91798323D02*
X151946600Y-91893561D01*
X152327552Y-91893561D01*
X152518028Y-91798323D01*
X152613266Y-91607847D01*
X152613266Y-90845942D01*
X152518028Y-90655466D01*
X152327552Y-90560228D01*
X151946600Y-90560228D01*
X151756123Y-90655466D01*
X151660885Y-90845942D01*
X151660885Y-91036419D01*
X152613266Y-91226895D01*
X149279933Y-91893561D02*
X149279933Y-89893561D01*
X148327552Y-91893561D02*
X148327552Y-89893561D01*
X146137076Y-89893561D02*
X145470409Y-91893561D01*
X144803742Y-89893561D01*
X143089457Y-89988800D02*
X143279933Y-89893561D01*
X143565647Y-89893561D01*
X143851361Y-89988800D01*
X144041838Y-90179276D01*
X144137076Y-90369752D01*
X144232314Y-90750704D01*
X144232314Y-91036419D01*
X144137076Y-91417371D01*
X144041838Y-91607847D01*
X143851361Y-91798323D01*
X143565647Y-91893561D01*
X143375171Y-91893561D01*
X143089457Y-91798323D01*
X142994219Y-91703085D01*
X142994219Y-91036419D01*
X143375171Y-91036419D01*
X142232314Y-91322133D02*
X141279933Y-91322133D01*
X142422790Y-91893561D02*
X141756123Y-89893561D01*
X141089457Y-91893561D01*
X168851361Y-95293561D02*
X168851361Y-93293561D01*
X168851361Y-94055466D02*
X168660885Y-93960228D01*
X168279933Y-93960228D01*
X168089457Y-94055466D01*
X167994219Y-94150704D01*
X167898980Y-94341180D01*
X167898980Y-94912609D01*
X167994219Y-95103085D01*
X168089457Y-95198323D01*
X168279933Y-95293561D01*
X168660885Y-95293561D01*
X168851361Y-95198323D01*
X167232314Y-93960228D02*
X166756123Y-95293561D01*
X166279933Y-93960228D02*
X166756123Y-95293561D01*
X166946600Y-95769752D01*
X167041838Y-95864990D01*
X167232314Y-95960228D01*
X163994219Y-95293561D02*
X163994219Y-93293561D01*
X163327552Y-94722133D01*
X162660885Y-93293561D01*
X162660885Y-95293561D01*
X160851361Y-95293561D02*
X160851361Y-94245942D01*
X160946600Y-94055466D01*
X161137076Y-93960228D01*
X161518028Y-93960228D01*
X161708504Y-94055466D01*
X160851361Y-95198323D02*
X161041838Y-95293561D01*
X161518028Y-95293561D01*
X161708504Y-95198323D01*
X161803742Y-95007847D01*
X161803742Y-94817371D01*
X161708504Y-94626895D01*
X161518028Y-94531657D01*
X161041838Y-94531657D01*
X160851361Y-94436419D01*
X159898980Y-95293561D02*
X159898980Y-93960228D01*
X159898980Y-94341180D02*
X159803742Y-94150704D01*
X159708504Y-94055466D01*
X159518028Y-93960228D01*
X159327552Y-93960228D01*
X158660885Y-95293561D02*
X158660885Y-93293561D01*
X158470409Y-94531657D02*
X157898980Y-95293561D01*
X157898980Y-93960228D02*
X158660885Y-94722133D01*
X155613266Y-94722133D02*
X154660885Y-94722133D01*
X155803742Y-95293561D02*
X155137076Y-93293561D01*
X154470409Y-95293561D01*
X153803742Y-95293561D02*
X153803742Y-93960228D01*
X153803742Y-93293561D02*
X153898980Y-93388800D01*
X153803742Y-93484038D01*
X153708504Y-93388800D01*
X153803742Y-93293561D01*
X153803742Y-93484038D01*
X152851361Y-95293561D02*
X152851361Y-93293561D01*
X152660885Y-94531657D02*
X152089457Y-95293561D01*
X152089457Y-93960228D02*
X152851361Y-94722133D01*
X150470409Y-95198323D02*
X150660885Y-95293561D01*
X151041838Y-95293561D01*
X151232314Y-95198323D01*
X151327552Y-95007847D01*
X151327552Y-94245942D01*
X151232314Y-94055466D01*
X151041838Y-93960228D01*
X150660885Y-93960228D01*
X150470409Y-94055466D01*
X150375171Y-94245942D01*
X150375171Y-94436419D01*
X151327552Y-94626895D01*
X149518028Y-93960228D02*
X149518028Y-95293561D01*
X149518028Y-94150704D02*
X149422790Y-94055466D01*
X149232314Y-93960228D01*
X148946600Y-93960228D01*
X148756123Y-94055466D01*
X148660885Y-94245942D01*
X148660885Y-95293561D01*
X147803742Y-95198323D02*
X147613266Y-95293561D01*
X147232314Y-95293561D01*
X147041838Y-95198323D01*
X146946600Y-95007847D01*
X146946600Y-94912609D01*
X147041838Y-94722133D01*
X147232314Y-94626895D01*
X147518028Y-94626895D01*
X147708504Y-94531657D01*
X147803742Y-94341180D01*
X147803742Y-94245942D01*
X147708504Y-94055466D01*
X147518028Y-93960228D01*
X147232314Y-93960228D01*
X147041838Y-94055466D01*
M02*
