%TF.GenerationSoftware,KiCad,Pcbnew,(5.1.10)-1*%
%TF.CreationDate,2022-12-06T13:34:18-05:00*%
%TF.ProjectId,AppleII-Pico,4170706c-6549-4492-9d50-69636f2e6b69,rev?*%
%TF.SameCoordinates,Original*%
%TF.FileFunction,Legend,Top*%
%TF.FilePolarity,Positive*%
%FSLAX46Y46*%
G04 Gerber Fmt 4.6, Leading zero omitted, Abs format (unit mm)*
G04 Created by KiCad (PCBNEW (5.1.10)-1) date 2022-12-06 13:34:18*
%MOMM*%
%LPD*%
G01*
G04 APERTURE LIST*
%ADD10C,0.400000*%
%ADD11C,0.500000*%
%ADD12C,0.120000*%
%ADD13C,0.100000*%
%ADD14C,0.150000*%
G04 APERTURE END LIST*
D10*
X165519314Y-124508961D02*
X164852647Y-123556580D01*
X164376457Y-124508961D02*
X164376457Y-122508961D01*
X165138361Y-122508961D01*
X165328838Y-122604200D01*
X165424076Y-122699438D01*
X165519314Y-122889914D01*
X165519314Y-123175628D01*
X165424076Y-123366104D01*
X165328838Y-123461342D01*
X165138361Y-123556580D01*
X164376457Y-123556580D01*
X167138361Y-124413723D02*
X166947885Y-124508961D01*
X166566933Y-124508961D01*
X166376457Y-124413723D01*
X166281219Y-124223247D01*
X166281219Y-123461342D01*
X166376457Y-123270866D01*
X166566933Y-123175628D01*
X166947885Y-123175628D01*
X167138361Y-123270866D01*
X167233600Y-123461342D01*
X167233600Y-123651819D01*
X166281219Y-123842295D01*
X167900266Y-123175628D02*
X168376457Y-124508961D01*
X168852647Y-123175628D01*
X172185980Y-124508961D02*
X171043123Y-124508961D01*
X171614552Y-124508961D02*
X171614552Y-122508961D01*
X171424076Y-122794676D01*
X171233600Y-122985152D01*
X171043123Y-123080390D01*
D11*
X103049190Y-119753666D02*
X104239666Y-119753666D01*
X102811095Y-120467952D02*
X103644428Y-117967952D01*
X104477761Y-120467952D01*
X105311095Y-118801285D02*
X105311095Y-120467952D01*
X105311095Y-119039380D02*
X105430142Y-118920333D01*
X105668238Y-118801285D01*
X106025380Y-118801285D01*
X106263476Y-118920333D01*
X106382523Y-119158428D01*
X106382523Y-120467952D01*
X108644428Y-120467952D02*
X108644428Y-119158428D01*
X108525380Y-118920333D01*
X108287285Y-118801285D01*
X107811095Y-118801285D01*
X107573000Y-118920333D01*
X108644428Y-120348904D02*
X108406333Y-120467952D01*
X107811095Y-120467952D01*
X107573000Y-120348904D01*
X107453952Y-120110809D01*
X107453952Y-119872714D01*
X107573000Y-119634619D01*
X107811095Y-119515571D01*
X108406333Y-119515571D01*
X108644428Y-119396523D01*
X110192047Y-120467952D02*
X109953952Y-120348904D01*
X109834904Y-120110809D01*
X109834904Y-117967952D01*
X111501571Y-120467952D02*
X111263476Y-120348904D01*
X111144428Y-120229857D01*
X111025380Y-119991761D01*
X111025380Y-119277476D01*
X111144428Y-119039380D01*
X111263476Y-118920333D01*
X111501571Y-118801285D01*
X111858714Y-118801285D01*
X112096809Y-118920333D01*
X112215857Y-119039380D01*
X112334904Y-119277476D01*
X112334904Y-119991761D01*
X112215857Y-120229857D01*
X112096809Y-120348904D01*
X111858714Y-120467952D01*
X111501571Y-120467952D01*
X114477761Y-118801285D02*
X114477761Y-120825095D01*
X114358714Y-121063190D01*
X114239666Y-121182238D01*
X114001571Y-121301285D01*
X113644428Y-121301285D01*
X113406333Y-121182238D01*
X114477761Y-120348904D02*
X114239666Y-120467952D01*
X113763476Y-120467952D01*
X113525380Y-120348904D01*
X113406333Y-120229857D01*
X113287285Y-119991761D01*
X113287285Y-119277476D01*
X113406333Y-119039380D01*
X113525380Y-118920333D01*
X113763476Y-118801285D01*
X114239666Y-118801285D01*
X114477761Y-118920333D01*
X148708504Y-89019061D02*
X148708504Y-90447633D01*
X148613266Y-90733347D01*
X148422790Y-90923823D01*
X148137076Y-91019061D01*
X147946600Y-91019061D01*
X150613266Y-91019061D02*
X149660885Y-91019061D01*
X149660885Y-89019061D01*
X152422790Y-90828585D02*
X152327552Y-90923823D01*
X152041838Y-91019061D01*
X151851361Y-91019061D01*
X151565647Y-90923823D01*
X151375171Y-90733347D01*
X151279933Y-90542871D01*
X151184695Y-90161919D01*
X151184695Y-89876204D01*
X151279933Y-89495252D01*
X151375171Y-89304776D01*
X151565647Y-89114300D01*
X151851361Y-89019061D01*
X152041838Y-89019061D01*
X152327552Y-89114300D01*
X152422790Y-89209538D01*
X153851361Y-89019061D02*
X153851361Y-90447633D01*
X153756123Y-90733347D01*
X153565647Y-90923823D01*
X153279933Y-91019061D01*
X153089457Y-91019061D01*
X155756123Y-91019061D02*
X154803742Y-91019061D01*
X154803742Y-89019061D01*
X157565647Y-90828585D02*
X157470409Y-90923823D01*
X157184695Y-91019061D01*
X156994219Y-91019061D01*
X156708504Y-90923823D01*
X156518028Y-90733347D01*
X156422790Y-90542871D01*
X156327552Y-90161919D01*
X156327552Y-89876204D01*
X156422790Y-89495252D01*
X156518028Y-89304776D01*
X156708504Y-89114300D01*
X156994219Y-89019061D01*
X157184695Y-89019061D01*
X157470409Y-89114300D01*
X157565647Y-89209538D01*
X158994219Y-89019061D02*
X158994219Y-90447633D01*
X158898980Y-90733347D01*
X158708504Y-90923823D01*
X158422790Y-91019061D01*
X158232314Y-91019061D01*
X160898980Y-91019061D02*
X159946600Y-91019061D01*
X159946600Y-89019061D01*
X162708504Y-90828585D02*
X162613266Y-90923823D01*
X162327552Y-91019061D01*
X162137076Y-91019061D01*
X161851361Y-90923823D01*
X161660885Y-90733347D01*
X161565647Y-90542871D01*
X161470409Y-90161919D01*
X161470409Y-89876204D01*
X161565647Y-89495252D01*
X161660885Y-89304776D01*
X161851361Y-89114300D01*
X162137076Y-89019061D01*
X162327552Y-89019061D01*
X162613266Y-89114300D01*
X162708504Y-89209538D01*
X164137076Y-89019061D02*
X164137076Y-90447633D01*
X164041838Y-90733347D01*
X163851361Y-90923823D01*
X163565647Y-91019061D01*
X163375171Y-91019061D01*
X166041838Y-91019061D02*
X165089457Y-91019061D01*
X165089457Y-89019061D01*
X167851361Y-90828585D02*
X167756123Y-90923823D01*
X167470409Y-91019061D01*
X167279933Y-91019061D01*
X166994219Y-90923823D01*
X166803742Y-90733347D01*
X166708504Y-90542871D01*
X166613266Y-90161919D01*
X166613266Y-89876204D01*
X166708504Y-89495252D01*
X166803742Y-89304776D01*
X166994219Y-89114300D01*
X167279933Y-89019061D01*
X167470409Y-89019061D01*
X167756123Y-89114300D01*
X167851361Y-89209538D01*
X108188000Y-113368000D02*
X107045000Y-113368000D01*
X106799190Y-112633952D02*
X107632523Y-115133952D01*
X108465857Y-112633952D01*
X109180142Y-112872047D02*
X109299190Y-112753000D01*
X109537285Y-112633952D01*
X110132523Y-112633952D01*
X110370619Y-112753000D01*
X110489666Y-112872047D01*
X110608714Y-113110142D01*
X110608714Y-113348238D01*
X110489666Y-113705380D01*
X109061095Y-115133952D01*
X110608714Y-115133952D01*
D12*
%TO.C,U6*%
X132452000Y-77905000D02*
X132452000Y-101950000D01*
X183492000Y-77905000D02*
X132452000Y-77905000D01*
X183492000Y-101950000D02*
X183492000Y-77905000D01*
X132452000Y-101950000D02*
X183492000Y-101950000D01*
X132512000Y-82405000D02*
X132512000Y-97405000D01*
X183432000Y-82405000D02*
X132512000Y-82405000D01*
X183432000Y-97405000D02*
X183432000Y-82405000D01*
X132512000Y-97405000D02*
X183432000Y-97405000D01*
%TO.C,J3*%
X164827000Y-116527000D02*
X164827000Y-114527000D01*
X167627000Y-116527000D02*
X164827000Y-116527000D01*
X167627000Y-114527000D02*
X167627000Y-116527000D01*
X164827000Y-114527000D02*
X167627000Y-114527000D01*
%TO.C,D1*%
X174019000Y-106765000D02*
X174019000Y-110065000D01*
X174019000Y-110065000D02*
X180919000Y-110065000D01*
X174019000Y-106765000D02*
X180919000Y-106765000D01*
%TO.C,C11*%
X180351000Y-122818248D02*
X180351000Y-123340752D01*
X181821000Y-122818248D02*
X181821000Y-123340752D01*
%TO.C,C10*%
X172794500Y-113995748D02*
X172794500Y-114518252D01*
X174264500Y-113995748D02*
X174264500Y-114518252D01*
%TO.C,U7*%
X175355000Y-119934000D02*
X175355000Y-113924000D01*
X182175000Y-117684000D02*
X182175000Y-113924000D01*
X175355000Y-113924000D02*
X176615000Y-113924000D01*
X182175000Y-113924000D02*
X180915000Y-113924000D01*
D13*
%TO.C,U5*%
X171392000Y-120692000D02*
X171392000Y-119042000D01*
X169742000Y-120692000D02*
X171392000Y-120692000D01*
X161062000Y-120692000D02*
X161062000Y-119042000D01*
X162712000Y-120692000D02*
X161062000Y-120692000D01*
X171392000Y-110362000D02*
X171392000Y-112012000D01*
X169742000Y-110362000D02*
X171392000Y-110362000D01*
X161062000Y-111512000D02*
X161062000Y-112012000D01*
X162212000Y-110362000D02*
X161062000Y-111512000D01*
X162712000Y-110362000D02*
X162212000Y-110362000D01*
D12*
%TO.C,C9*%
X168016165Y-109156000D02*
X168247835Y-109156000D01*
X168016165Y-108436000D02*
X168247835Y-108436000D01*
%TO.C,C8*%
X157475165Y-111442000D02*
X157706835Y-111442000D01*
X157475165Y-110722000D02*
X157706835Y-110722000D01*
%TO.C,C7*%
X157475165Y-117030000D02*
X157706835Y-117030000D01*
X157475165Y-116310000D02*
X157706835Y-116310000D01*
%TO.C,C6*%
X146045165Y-111442000D02*
X146276835Y-111442000D01*
X146045165Y-110722000D02*
X146276835Y-110722000D01*
%TO.C,C5*%
X146045165Y-117030000D02*
X146276835Y-117030000D01*
X146045165Y-116310000D02*
X146276835Y-116310000D01*
%TO.C,C4*%
X134615165Y-111442000D02*
X134846835Y-111442000D01*
X134615165Y-110722000D02*
X134846835Y-110722000D01*
%TO.C,C3*%
X134615165Y-117030000D02*
X134846835Y-117030000D01*
X134615165Y-116310000D02*
X134846835Y-116310000D01*
%TO.C,C2*%
X123185165Y-111442000D02*
X123416835Y-111442000D01*
X123185165Y-110722000D02*
X123416835Y-110722000D01*
%TO.C,C1*%
X123185165Y-117030000D02*
X123416835Y-117030000D01*
X123185165Y-116310000D02*
X123416835Y-116310000D01*
%TO.C,J2*%
X92666325Y-114384000D02*
X93099338Y-114134000D01*
X93099338Y-114634000D02*
X92666325Y-114384000D01*
X93099338Y-114134000D02*
X93099338Y-114634000D01*
X92205000Y-125554000D02*
X83605000Y-125554000D01*
X92205000Y-94584000D02*
X92205000Y-125554000D01*
X83605000Y-94584000D02*
X92205000Y-94584000D01*
%TO.C,U4*%
X154486000Y-113876000D02*
X154486000Y-110276000D01*
X154486000Y-113876000D02*
X154486000Y-116076000D01*
X149266000Y-113876000D02*
X149266000Y-111676000D01*
X149266000Y-113876000D02*
X149266000Y-116076000D01*
%TO.C,U3*%
X143056000Y-113876000D02*
X143056000Y-110276000D01*
X143056000Y-113876000D02*
X143056000Y-116076000D01*
X137836000Y-113876000D02*
X137836000Y-111676000D01*
X137836000Y-113876000D02*
X137836000Y-116076000D01*
%TO.C,U1*%
X120196000Y-113876000D02*
X120196000Y-110276000D01*
X120196000Y-113876000D02*
X120196000Y-116076000D01*
X114976000Y-113876000D02*
X114976000Y-111676000D01*
X114976000Y-113876000D02*
X114976000Y-116076000D01*
%TO.C,U2*%
X131626000Y-113876000D02*
X131626000Y-110276000D01*
X131626000Y-113876000D02*
X131626000Y-116076000D01*
X126406000Y-113876000D02*
X126406000Y-111676000D01*
X126406000Y-113876000D02*
X126406000Y-116076000D01*
%TO.C,R14*%
X171562000Y-104945379D02*
X171562000Y-105280621D01*
X172322000Y-104945379D02*
X172322000Y-105280621D01*
%TO.C,R13*%
X174102000Y-104945379D02*
X174102000Y-105280621D01*
X174862000Y-104945379D02*
X174862000Y-105280621D01*
%TO.C,R12*%
X169022000Y-104945379D02*
X169022000Y-105280621D01*
X169782000Y-104945379D02*
X169782000Y-105280621D01*
%TO.C,R11*%
X98830621Y-102828000D02*
X98495379Y-102828000D01*
X98830621Y-103588000D02*
X98495379Y-103588000D01*
%TO.C,R10*%
X98830621Y-101304000D02*
X98495379Y-101304000D01*
X98830621Y-102064000D02*
X98495379Y-102064000D01*
%TO.C,R9*%
X98830621Y-104860000D02*
X98495379Y-104860000D01*
X98830621Y-105620000D02*
X98495379Y-105620000D01*
%TO.C,R8*%
X98830621Y-106384000D02*
X98495379Y-106384000D01*
X98830621Y-107144000D02*
X98495379Y-107144000D01*
%TO.C,R7*%
X98830621Y-107908000D02*
X98495379Y-107908000D01*
X98830621Y-108668000D02*
X98495379Y-108668000D01*
%TO.C,R6*%
X98830621Y-109940000D02*
X98495379Y-109940000D01*
X98830621Y-110700000D02*
X98495379Y-110700000D01*
%TO.C,R5*%
X98830621Y-111464000D02*
X98495379Y-111464000D01*
X98830621Y-112224000D02*
X98495379Y-112224000D01*
%TO.C,R4*%
X98830621Y-112988000D02*
X98495379Y-112988000D01*
X98830621Y-113748000D02*
X98495379Y-113748000D01*
%TO.C,R3*%
X98830621Y-115020000D02*
X98495379Y-115020000D01*
X98830621Y-115780000D02*
X98495379Y-115780000D01*
%TO.C,R2*%
X98830621Y-116544000D02*
X98495379Y-116544000D01*
X98830621Y-117304000D02*
X98495379Y-117304000D01*
%TO.C,R1*%
X98830621Y-118068000D02*
X98495379Y-118068000D01*
X98830621Y-118828000D02*
X98495379Y-118828000D01*
%TO.C,J3*%
D14*
X165893666Y-113179380D02*
X165893666Y-113893666D01*
X165846047Y-114036523D01*
X165750809Y-114131761D01*
X165607952Y-114179380D01*
X165512714Y-114179380D01*
X166274619Y-113179380D02*
X166893666Y-113179380D01*
X166560333Y-113560333D01*
X166703190Y-113560333D01*
X166798428Y-113607952D01*
X166846047Y-113655571D01*
X166893666Y-113750809D01*
X166893666Y-113988904D01*
X166846047Y-114084142D01*
X166798428Y-114131761D01*
X166703190Y-114179380D01*
X166417476Y-114179380D01*
X166322238Y-114131761D01*
X166274619Y-114084142D01*
%TO.C,U7*%
X175752095Y-116630380D02*
X175752095Y-117439904D01*
X175799714Y-117535142D01*
X175847333Y-117582761D01*
X175942571Y-117630380D01*
X176133047Y-117630380D01*
X176228285Y-117582761D01*
X176275904Y-117535142D01*
X176323523Y-117439904D01*
X176323523Y-116630380D01*
X176704476Y-116630380D02*
X177371142Y-116630380D01*
X176942571Y-117630380D01*
%TO.C,U5*%
X165465095Y-112820380D02*
X165465095Y-113629904D01*
X165512714Y-113725142D01*
X165560333Y-113772761D01*
X165655571Y-113820380D01*
X165846047Y-113820380D01*
X165941285Y-113772761D01*
X165988904Y-113725142D01*
X166036523Y-113629904D01*
X166036523Y-112820380D01*
X166988904Y-112820380D02*
X166512714Y-112820380D01*
X166465095Y-113296571D01*
X166512714Y-113248952D01*
X166607952Y-113201333D01*
X166846047Y-113201333D01*
X166941285Y-113248952D01*
X166988904Y-113296571D01*
X167036523Y-113391809D01*
X167036523Y-113629904D01*
X166988904Y-113725142D01*
X166941285Y-113772761D01*
X166846047Y-113820380D01*
X166607952Y-113820380D01*
X166512714Y-113772761D01*
X166465095Y-113725142D01*
%TO.C,U4*%
X152638095Y-112058380D02*
X152638095Y-112867904D01*
X152685714Y-112963142D01*
X152733333Y-113010761D01*
X152828571Y-113058380D01*
X153019047Y-113058380D01*
X153114285Y-113010761D01*
X153161904Y-112963142D01*
X153209523Y-112867904D01*
X153209523Y-112058380D01*
X154114285Y-112391714D02*
X154114285Y-113058380D01*
X153876190Y-112010761D02*
X153638095Y-112725047D01*
X154257142Y-112725047D01*
%TO.C,U3*%
X141208095Y-112058380D02*
X141208095Y-112867904D01*
X141255714Y-112963142D01*
X141303333Y-113010761D01*
X141398571Y-113058380D01*
X141589047Y-113058380D01*
X141684285Y-113010761D01*
X141731904Y-112963142D01*
X141779523Y-112867904D01*
X141779523Y-112058380D01*
X142160476Y-112058380D02*
X142779523Y-112058380D01*
X142446190Y-112439333D01*
X142589047Y-112439333D01*
X142684285Y-112486952D01*
X142731904Y-112534571D01*
X142779523Y-112629809D01*
X142779523Y-112867904D01*
X142731904Y-112963142D01*
X142684285Y-113010761D01*
X142589047Y-113058380D01*
X142303333Y-113058380D01*
X142208095Y-113010761D01*
X142160476Y-112963142D01*
%TO.C,U1*%
X118348095Y-112058380D02*
X118348095Y-112867904D01*
X118395714Y-112963142D01*
X118443333Y-113010761D01*
X118538571Y-113058380D01*
X118729047Y-113058380D01*
X118824285Y-113010761D01*
X118871904Y-112963142D01*
X118919523Y-112867904D01*
X118919523Y-112058380D01*
X119919523Y-113058380D02*
X119348095Y-113058380D01*
X119633809Y-113058380D02*
X119633809Y-112058380D01*
X119538571Y-112201238D01*
X119443333Y-112296476D01*
X119348095Y-112344095D01*
%TO.C,U2*%
X129778095Y-112058380D02*
X129778095Y-112867904D01*
X129825714Y-112963142D01*
X129873333Y-113010761D01*
X129968571Y-113058380D01*
X130159047Y-113058380D01*
X130254285Y-113010761D01*
X130301904Y-112963142D01*
X130349523Y-112867904D01*
X130349523Y-112058380D01*
X130778095Y-112153619D02*
X130825714Y-112106000D01*
X130920952Y-112058380D01*
X131159047Y-112058380D01*
X131254285Y-112106000D01*
X131301904Y-112153619D01*
X131349523Y-112248857D01*
X131349523Y-112344095D01*
X131301904Y-112486952D01*
X130730476Y-113058380D01*
X131349523Y-113058380D01*
%TD*%
M02*
