%TF.GenerationSoftware,KiCad,Pcbnew,(5.1.10)-1*%
%TF.CreationDate,2022-12-06T13:34:18-05:00*%
%TF.ProjectId,AppleII-Pico,4170706c-6549-4492-9d50-69636f2e6b69,rev?*%
%TF.SameCoordinates,Original*%
%TF.FileFunction,Soldermask,Bot*%
%TF.FilePolarity,Negative*%
%FSLAX46Y46*%
G04 Gerber Fmt 4.6, Leading zero omitted, Abs format (unit mm)*
G04 Created by KiCad (PCBNEW (5.1.10)-1) date 2022-12-06 13:34:18*
%MOMM*%
%LPD*%
G01*
G04 APERTURE LIST*
%ADD10C,4.000000*%
%ADD11C,1.600000*%
%ADD12R,1.600000X1.600000*%
%ADD13R,1.400000X8.000000*%
%ADD14C,0.254000*%
%ADD15C,0.100000*%
G04 APERTURE END LIST*
D10*
%TO.C,J2*%
X88485000Y-122569000D03*
X88485000Y-97569000D03*
D11*
X86575000Y-105224000D03*
X86575000Y-107514000D03*
X86575000Y-109804000D03*
X86575000Y-112094000D03*
X86575000Y-114384000D03*
X88555000Y-106369000D03*
X88555000Y-108659000D03*
X88555000Y-110949000D03*
X88555000Y-113239000D03*
X88555000Y-115529000D03*
X90535000Y-105224000D03*
X90535000Y-107514000D03*
X90535000Y-109804000D03*
X90535000Y-112094000D03*
D12*
X90535000Y-114384000D03*
%TD*%
D13*
%TO.C,J1*%
X172590000Y-130237500D03*
X170050000Y-130237500D03*
X167510000Y-130237500D03*
X164970000Y-130237500D03*
X162430000Y-130237500D03*
X159890000Y-130237500D03*
X157350000Y-130237500D03*
X154810000Y-130237500D03*
X152270000Y-130237500D03*
X149730000Y-130237500D03*
X147190000Y-130237500D03*
X144650000Y-130237500D03*
X142110000Y-130237500D03*
X139570000Y-130237500D03*
X137030000Y-130237500D03*
X134490000Y-130237500D03*
X131950000Y-130237500D03*
X129410000Y-130237500D03*
X126870000Y-130237500D03*
X124330000Y-130237500D03*
X121790000Y-130237500D03*
X119250000Y-130237500D03*
X116710000Y-130237500D03*
X114170000Y-130237500D03*
X111630000Y-130237500D03*
%TD*%
D14*
X174609000Y-126489606D02*
X174609000Y-133774394D01*
X173933394Y-134450000D01*
X110260606Y-134450000D01*
X109585000Y-133774394D01*
X109585000Y-126489606D01*
X110260606Y-125814000D01*
X173933394Y-125814000D01*
X174609000Y-126489606D01*
D15*
G36*
X174609000Y-126489606D02*
G01*
X174609000Y-133774394D01*
X173933394Y-134450000D01*
X110260606Y-134450000D01*
X109585000Y-133774394D01*
X109585000Y-126489606D01*
X110260606Y-125814000D01*
X173933394Y-125814000D01*
X174609000Y-126489606D01*
G37*
M02*
